<mxfile host="app.diagrams.net" agent="Mozilla/5.0 (Macintosh; Intel Mac OS X 10_15_7) AppleWebKit/537.36 (KHTML, like Gecko) Chrome/130.0.0.0 Safari/537.36" version="24.8.3">
  <diagram name="第 1 页" id="BI0hqZaHhrEwp1uG1gYI">
    <mxGraphModel dx="1358" dy="761" grid="1" gridSize="10" guides="1" tooltips="1" connect="1" arrows="1" fold="1" page="1" pageScale="1" pageWidth="827" pageHeight="1169" math="0" shadow="0">
      <root>
        <mxCell id="0" />
        <mxCell id="1" parent="0" />
        <mxCell id="rCVfV42INYf2JYrGVh9Q-20" value="" style="rounded=1;whiteSpace=wrap;html=1;fillColor=#60a917;dashed=1;fontColor=#ffffff;strokeColor=none;" vertex="1" parent="1">
          <mxGeometry x="150" y="260" width="490" height="90" as="geometry" />
        </mxCell>
        <mxCell id="rCVfV42INYf2JYrGVh9Q-21" value="" style="rounded=1;whiteSpace=wrap;html=1;fillColor=#1ba1e2;dashed=1;strokeColor=none;fontColor=#ffffff;" vertex="1" parent="1">
          <mxGeometry x="150" y="370" width="490" height="130" as="geometry" />
        </mxCell>
        <mxCell id="rCVfV42INYf2JYrGVh9Q-22" value="" style="rounded=1;whiteSpace=wrap;html=1;fillColor=#d80073;dashed=1;strokeColor=none;fontColor=#ffffff;" vertex="1" parent="1">
          <mxGeometry x="150" y="525" width="490" height="70" as="geometry" />
        </mxCell>
        <mxCell id="rCVfV42INYf2JYrGVh9Q-5" value="统一支付&lt;div&gt;（支付宝）&lt;/div&gt;&lt;div&gt;（微信）&lt;/div&gt;" style="rounded=0;whiteSpace=wrap;html=1;fillColor=#dae8fc;strokeColor=#6c8ebf;" vertex="1" parent="1">
          <mxGeometry x="240" y="380" width="120" height="50" as="geometry" />
        </mxCell>
        <mxCell id="rCVfV42INYf2JYrGVh9Q-6" value="订单状态查询" style="rounded=0;whiteSpace=wrap;html=1;fillColor=#dae8fc;strokeColor=#6c8ebf;" vertex="1" parent="1">
          <mxGeometry x="370" y="380" width="120" height="50" as="geometry" />
        </mxCell>
        <mxCell id="rCVfV42INYf2JYrGVh9Q-7" value="通用浮层" style="rounded=0;whiteSpace=wrap;html=1;fillColor=#dae8fc;strokeColor=#6c8ebf;" vertex="1" parent="1">
          <mxGeometry x="370" y="440" width="120" height="50" as="geometry" />
        </mxCell>
        <mxCell id="rCVfV42INYf2JYrGVh9Q-8" value="支付逻辑管理&lt;div&gt;（支付完成）&lt;/div&gt;" style="rounded=0;whiteSpace=wrap;html=1;fillColor=#dae8fc;strokeColor=#6c8ebf;" vertex="1" parent="1">
          <mxGeometry x="240" y="440" width="120" height="50" as="geometry" />
        </mxCell>
        <mxCell id="rCVfV42INYf2JYrGVh9Q-9" value="下单" style="rounded=0;whiteSpace=wrap;html=1;fillColor=#d5e8d4;strokeColor=#82b366;" vertex="1" parent="1">
          <mxGeometry x="240" y="270" width="70" height="70" as="geometry" />
        </mxCell>
        <mxCell id="rCVfV42INYf2JYrGVh9Q-10" value="支付宝&lt;div&gt;专业版&lt;/div&gt;" style="rounded=0;whiteSpace=wrap;html=1;fillColor=#dae8fc;strokeColor=#6c8ebf;" vertex="1" parent="1">
          <mxGeometry x="500" y="380" width="60" height="110" as="geometry" />
        </mxCell>
        <mxCell id="rCVfV42INYf2JYrGVh9Q-11" value="newBuy" style="rounded=0;whiteSpace=wrap;html=1;fillColor=#d5e8d4;strokeColor=#82b366;" vertex="1" parent="1">
          <mxGeometry x="350" y="270" width="70" height="70" as="geometry" />
        </mxCell>
        <mxCell id="rCVfV42INYf2JYrGVh9Q-12" value="订单" style="rounded=0;whiteSpace=wrap;html=1;fillColor=#d5e8d4;strokeColor=#82b366;" vertex="1" parent="1">
          <mxGeometry x="450" y="270" width="70" height="70" as="geometry" />
        </mxCell>
        <mxCell id="rCVfV42INYf2JYrGVh9Q-13" value="其他" style="rounded=0;whiteSpace=wrap;html=1;fillColor=#d5e8d4;strokeColor=#82b366;" vertex="1" parent="1">
          <mxGeometry x="550" y="270" width="70" height="70" as="geometry" />
        </mxCell>
        <mxCell id="rCVfV42INYf2JYrGVh9Q-15" value="微信" style="rounded=0;whiteSpace=wrap;html=1;fillColor=#f8cecc;strokeColor=#b85450;" vertex="1" parent="1">
          <mxGeometry x="240" y="535" width="90" height="50" as="geometry" />
        </mxCell>
        <mxCell id="rCVfV42INYf2JYrGVh9Q-16" value="JsBridge接口" style="rounded=0;whiteSpace=wrap;html=1;fillColor=#dae8fc;strokeColor=#6c8ebf;" vertex="1" parent="1">
          <mxGeometry x="570" y="380" width="60" height="110" as="geometry" />
        </mxCell>
        <mxCell id="rCVfV42INYf2JYrGVh9Q-17" value="支付宝" style="rounded=0;whiteSpace=wrap;html=1;fillColor=#f8cecc;strokeColor=#b85450;" vertex="1" parent="1">
          <mxGeometry x="340" y="535" width="90" height="50" as="geometry" />
        </mxCell>
        <mxCell id="rCVfV42INYf2JYrGVh9Q-18" value="云闪付" style="rounded=0;whiteSpace=wrap;html=1;fillColor=#f8cecc;strokeColor=#b85450;" vertex="1" parent="1">
          <mxGeometry x="440" y="535" width="90" height="50" as="geometry" />
        </mxCell>
        <mxCell id="rCVfV42INYf2JYrGVh9Q-19" value="其他" style="rounded=0;whiteSpace=wrap;html=1;fillColor=#f8cecc;strokeColor=#b85450;" vertex="1" parent="1">
          <mxGeometry x="540" y="535" width="90" height="50" as="geometry" />
        </mxCell>
        <mxCell id="rCVfV42INYf2JYrGVh9Q-26" value="&lt;font color=&quot;#ffffff&quot;&gt;业务方&lt;/font&gt;" style="text;html=1;align=center;verticalAlign=middle;whiteSpace=wrap;rounded=0;" vertex="1" parent="1">
          <mxGeometry x="165" y="290" width="60" height="30" as="geometry" />
        </mxCell>
        <mxCell id="rCVfV42INYf2JYrGVh9Q-27" value="&lt;font color=&quot;#ffffff&quot;&gt;收银台&lt;/font&gt;&lt;div&gt;&lt;font color=&quot;#ffffff&quot;&gt;SDK&lt;/font&gt;&lt;/div&gt;" style="text;html=1;align=center;verticalAlign=middle;whiteSpace=wrap;rounded=0;" vertex="1" parent="1">
          <mxGeometry x="165" y="420" width="60" height="30" as="geometry" />
        </mxCell>
        <mxCell id="rCVfV42INYf2JYrGVh9Q-28" value="&lt;font color=&quot;#ffffff&quot;&gt;二方支付&lt;/font&gt;" style="text;html=1;align=center;verticalAlign=middle;whiteSpace=wrap;rounded=0;" vertex="1" parent="1">
          <mxGeometry x="165" y="545" width="60" height="30" as="geometry" />
        </mxCell>
      </root>
    </mxGraphModel>
  </diagram>
</mxfile>
